<?xml version="1.0" encoding="utf-8"?>
<svg version="1.1" id="Layer_1" xmlns="http://www.w3.org/2000/svg" xmlns:xlink="http://www.w3.org/1999/xlink" x="0px" y="0px"
	 viewBox="0 0 1300 1100" style="enable-background:new 0 0 1300 1300;" xml:space="preserve">
<g id="XMLID_2_">
	<g id="XMLID_1_">
		<g id="XMLID_4_">
			
				<radialGradient id="XMLID_00000021805740767477671980000000394846455769120132_" cx="641.3093" cy="486.7972" r="384.7437" gradientUnits="userSpaceOnUse">
				<stop  offset="0" style="stop-color:#FFF33E"/>
				<stop  offset="0.6429" style="stop-color:#FCAF17"/>
				<stop  offset="0.9898" style="stop-color:#F04E23"/>
			</radialGradient>
			<path id="XMLID_10_" style="fill:url(#XMLID_00000021805740767477671980000000394846455769120132_);" d="M906.19,401.775
				c-256.088,3.781-461.937,92.372-580.565,152.373c8.491,70.861,40.172,137.336,89.924,188.559
				C631.054,507.269,906.19,401.775,906.19,401.775z"/>
			
				<linearGradient id="XMLID_00000155866517160268337170000003127469321848108195_" gradientUnits="userSpaceOnUse" x1="405.07" y1="622.2105" x2="646.3916" y2="474.8603">
				<stop  offset="0" style="stop-color:#FFF33E;stop-opacity:0"/>
				<stop  offset="1" style="stop-color:#FFFBCC;stop-opacity:0.7"/>
			</linearGradient>
			<path id="XMLID_5_" style="fill:url(#XMLID_00000155866517160268337170000003127469321848108195_);" d="M418.214,673.12
				c-19.125-28.138-33.101-59.691-41.047-92.808c51.45-24.465,122.139-54.36,204.319-79.224
				c26.253-7.944,52.41-15.007,78.432-21.186C587.339,526.583,500.293,590.944,418.214,673.12z"/>
		</g>
		
			<radialGradient id="XMLID_00000087413006917412849950000011935080777543538823_" cx="549.4628" cy="506.4033" r="351.8948" gradientTransform="matrix(1 0 0 1.0079 0 -3.9753)" gradientUnits="userSpaceOnUse">
			<stop  offset="0" style="stop-color:#00C0F3"/>
			<stop  offset="1" style="stop-color:#003366"/>
		</radialGradient>
		<path id="XMLID_3_" style="fill:url(#XMLID_00000087413006917412849950000011935080777543538823_);" d="M967.563,448.616
			c-182.365,81.598-347.989,200.849-482.979,348.113c17.037,9.938,35.21,18.477,54.445,25.377
			c35.781,12.835,72.326,18.999,108.292,19.179c61.077-32.998,125.84-76.656,150.091-122.953c0,0-21.616,57.318-56.449,109.619
			c96.18-28.423,177.976-100.731,214.433-202.365C976.531,566.667,979.626,505.67,967.563,448.616z"/>
		
			<radialGradient id="XMLID_00000139289368133035002920000006704696915408226194_" cx="542.6691" cy="530.7601" r="356.8577" gradientUnits="userSpaceOnUse">
			<stop  offset="0" style="stop-color:#00BDF2"/>
			<stop  offset="1" style="stop-color:#003366"/>
		</radialGradient>
		<path id="XMLID_6_" style="fill:url(#XMLID_00000139289368133035002920000006704696915408226194_);" d="M758.877,209.22
			c-110.444-39.617-228.19-15.899-313.553,52.387c69.204-22.046,123.023-21.64,123.023-21.64
			c-105.026,38.005-177.373,96.235-206.87,122.856c-7.233,13.644-13.6,27.956-18.967,42.917
			c-8.676,24.185-14.302,48.721-17.101,73.191c185.22-95.818,397.204-139.043,605.408-126.156
			C893.643,288.375,834.35,236.293,758.877,209.22z"/>
	</g>
</g>
</svg>
